<svg width="37" height="36" viewBox="0 0 37 36" fill="none" xmlns="http://www.w3.org/2000/svg">
<path d="M31.85 3H5.15C4.71239 3 4.29271 3.17384 3.98327 3.48327C3.67384 3.79271 3.5 4.21239 3.5 4.65V31.35C3.5 31.7876 3.67384 32.2073 3.98327 32.5167C4.29271 32.8262 4.71239 33 5.15 33H19.52V21.375H15.62V16.875H19.52V13.5C19.4392 12.7076 19.5328 11.9072 19.7941 11.1548C20.0554 10.4024 20.4781 9.71632 21.0327 9.14462C21.5872 8.57292 22.2602 8.12946 23.0042 7.84536C23.7483 7.56125 24.5455 7.44338 25.34 7.5C26.5075 7.49282 27.6744 7.55291 28.835 7.68V11.73H26.45C24.56 11.73 24.2 12.63 24.2 13.935V16.83H28.7L28.115 21.33H24.2V33H31.85C32.0667 33 32.2812 32.9573 32.4814 32.8744C32.6816 32.7915 32.8635 32.6699 33.0167 32.5167C33.1699 32.3635 33.2915 32.1816 33.3744 31.9814C33.4573 31.7812 33.5 31.5667 33.5 31.35V4.65C33.5 4.43332 33.4573 4.21876 33.3744 4.01857C33.2915 3.81839 33.1699 3.63649 33.0167 3.48327C32.8635 3.33006 32.6816 3.20852 32.4814 3.1256C32.2812 3.04268 32.0667 3 31.85 3Z" fill="#050007"/>
</svg>
