<svg width="37" height="36" viewBox="0 0 37 36" fill="none" xmlns="http://www.w3.org/2000/svg">
<path d="M12.2 3H24.8C29.6 3 33.5 6.9 33.5 11.7V24.3C33.5 26.6074 32.5834 28.8203 30.9518 30.4518C29.3203 32.0834 27.1074 33 24.8 33H12.2C7.4 33 3.5 29.1 3.5 24.3V11.7C3.5 9.39262 4.4166 7.17974 6.04817 5.54817C7.67974 3.9166 9.89262 3 12.2 3ZM11.9 6C10.4678 6 9.09432 6.56893 8.08162 7.58162C7.06893 8.59432 6.5 9.96783 6.5 11.4V24.6C6.5 27.585 8.915 30 11.9 30H25.1C26.5322 30 27.9057 29.4311 28.9184 28.4184C29.9311 27.4057 30.5 26.0322 30.5 24.6V11.4C30.5 8.415 28.085 6 25.1 6H11.9ZM26.375 8.25C26.8723 8.25 27.3492 8.44754 27.7008 8.79917C28.0525 9.15081 28.25 9.62772 28.25 10.125C28.25 10.6223 28.0525 11.0992 27.7008 11.4508C27.3492 11.8025 26.8723 12 26.375 12C25.8777 12 25.4008 11.8025 25.0492 11.4508C24.6975 11.0992 24.5 10.6223 24.5 10.125C24.5 9.62772 24.6975 9.15081 25.0492 8.79917C25.4008 8.44754 25.8777 8.25 26.375 8.25ZM18.5 10.5C20.4891 10.5 22.3968 11.2902 23.8033 12.6967C25.2098 14.1032 26 16.0109 26 18C26 19.9891 25.2098 21.8968 23.8033 23.3033C22.3968 24.7098 20.4891 25.5 18.5 25.5C16.5109 25.5 14.6032 24.7098 13.1967 23.3033C11.7902 21.8968 11 19.9891 11 18C11 16.0109 11.7902 14.1032 13.1967 12.6967C14.6032 11.2902 16.5109 10.5 18.5 10.5ZM18.5 13.5C17.3065 13.5 16.1619 13.9741 15.318 14.818C14.4741 15.6619 14 16.8065 14 18C14 19.1935 14.4741 20.3381 15.318 21.182C16.1619 22.0259 17.3065 22.5 18.5 22.5C19.6935 22.5 20.8381 22.0259 21.682 21.182C22.5259 20.3381 23 19.1935 23 18C23 16.8065 22.5259 15.6619 21.682 14.818C20.8381 13.9741 19.6935 13.5 18.5 13.5Z" fill="#050007"/>
</svg>
