<svg width="37" height="36" viewBox="0 0 37 36" fill="none" xmlns="http://www.w3.org/2000/svg">
<path d="M25.91 8.73C24.8846 7.55943 24.3196 6.05615 24.32 4.5H19.685V23.1C19.6493 24.1065 19.2243 25.0599 18.4996 25.7594C17.775 26.4589 16.8072 26.8499 15.8 26.85C13.67 26.85 11.9 25.11 11.9 22.95C11.9 20.37 14.39 18.435 16.955 19.23V14.49C11.78 13.8 7.25 17.82 7.25 22.95C7.25 27.945 11.39 31.5 15.785 31.5C20.495 31.5 24.32 27.675 24.32 22.95V13.515C26.1995 14.8648 28.456 15.589 30.77 15.585V10.95C30.77 10.95 27.95 11.085 25.91 8.73Z" fill="#050007"/>
</svg>
